<?xml version="1.0" encoding="UTF-8"?>
<svg version="1.1" xmlns="http://www.w3.org/2000/svg" width="1182" height="1182">
<path d="M0 0 C1.95756641 1.01716188 3.92435575 2.01487529 5.89208984 3.01220703 C23.8080832 12.18761032 40.65334414 23.0941749 56.88037109 34.97705078 C57.55938477 35.47060059 58.23839844 35.96415039 58.93798828 36.47265625 C68.12365655 43.16482282 76.90451537 50.20419189 85.43798828 57.70947266 C86.65522802 58.77919316 87.88022228 59.84008023 89.10693359 60.89892578 C91.04663417 62.57521023 92.96632477 64.27153868 94.88037109 65.97705078 C95.68732422 66.69119141 96.49427734 67.40533203 97.32568359 68.14111328 C104.14982471 74.28093941 110.69233061 80.68359023 117.19287109 87.16455078 C118.46469238 88.42948364 118.46469238 88.42948364 119.76220703 89.7199707 C124.67506782 94.64491547 129.36670642 99.68524273 133.88037109 104.97705078 C134.72599609 105.94126953 135.57162109 106.90548828 136.44287109 107.89892578 C160.2768956 135.5525055 179.52519106 166.41861451 195.88037109 198.97705078 C196.49307861 200.18844727 196.49307861 200.18844727 197.11816406 201.42431641 C236.23021034 279.28762699 248.75732377 370.14760199 235.53662109 455.90283203 C235.42086731 456.65421448 235.30511353 457.40559692 235.18585205 458.17974854 C234.61422232 461.86540493 234.02759898 465.5478955 233.41845703 469.22753906 C233.25452454 470.24716988 233.25452454 470.24716988 233.08728027 471.28739929 C232.79034289 473.13407537 232.48458855 474.97932759 232.17822266 476.82446289 C231.8899572 479.87558735 232.00845431 482.05383331 232.88037109 484.97705078 C234.43710821 486.83002012 234.43710821 486.83002012 236.44287109 488.47705078 C246.66440885 498.2214611 253.54697311 512.32065638 254.11865234 526.49658203 C254.54417033 546.52252219 250.80029554 563.89963488 237.50537109 579.47705078 C225.01045859 592.37847585 207.59601046 599.87018443 189.66235352 600.40136719 C170.03038097 600.50617455 153.81817118 593.58868147 139.73583984 579.89111328 C126.72390918 566.10792095 121.48715976 549.41991602 121.66552734 530.73095703 C122.73820036 511.98843396 130.81246645 496.00330711 144.28662109 483.10595703 C152.73809378 476.16913081 166.62781748 467.97705078 177.88037109 467.97705078 C194.09886679 366.83851164 178.98875271 265.32463882 116.08984375 172.67211914 C114.69710817 170.76576227 113.2923712 168.86917144 111.88037109 166.97705078 C111.44917969 166.39568359 111.01798828 165.81431641 110.57373047 165.21533203 C104.34299359 156.85025671 97.68941807 148.87343394 90.88037109 140.97705078 C89.95804688 139.90197266 89.95804688 139.90197266 89.01708984 138.80517578 C77.76286122 125.80506443 66.03854036 113.07776085 52.88037109 101.97705078 C51.98576172 101.19330078 51.09115234 100.40955078 50.16943359 99.60205078 C-21.85140947 36.88812242 -118.23857024 5.19628967 -223.11914062 8.49267578 C-255.7762847 10.89356859 -287.9290215 17.02130569 -319.11962891 26.97705078 C-319.97959473 27.25129883 -320.83956055 27.52554688 -321.72558594 27.80810547 C-374.97154595 45.05868357 -421.98469877 75.46606348 -463.11962891 112.97705078 C-464.57175781 114.27255859 -464.57175781 114.27255859 -466.05322266 115.59423828 C-484.26716507 131.907494 -506.37380536 155.28294316 -508.27416992 181.07446289 C-509.22963837 200.53894434 -505.71191781 215.97004241 -492.93212891 231.16455078 C-474.44336317 250.88795863 -443.73401751 256.34109794 -417.90209961 257.30932617 C-410.18322615 257.51965641 -402.46608565 257.59657169 -394.74462891 257.66455078 C-381.07025391 257.81923828 -381.07025391 257.81923828 -367.11962891 257.97705078 C-367.11962891 231.24705078 -367.11962891 204.51705078 -367.11962891 176.97705078 C-347.97962891 176.97705078 -328.83962891 176.97705078 -309.11962891 176.97705078 C-309.11962891 203.70705078 -309.11962891 230.43705078 -309.11962891 257.97705078 C-296.90962891 257.97705078 -284.69962891 257.97705078 -272.11962891 257.97705078 C-272.11962891 276.78705078 -272.11962891 295.59705078 -272.11962891 314.97705078 C-284.32962891 314.97705078 -296.53962891 314.97705078 -309.11962891 314.97705078 C-309.11962891 336.75705078 -309.11962891 358.53705078 -309.11962891 380.97705078 C-304.16962891 379.98705078 -299.21962891 378.99705078 -294.11962891 377.97705078 C-287.51452915 376.86645879 -281.79971021 375.97705078 -275.11962891 375.97705078 C-275.11962891 384.22705078 -275.11962891 392.47705078 -275.11962891 400.97705078 C-253.66962891 400.64705078 -232.21962891 400.31705078 -210.11962891 399.97705078 C-205.26669437 389.05794807 -200.71538489 378.00686514 -196.11962891 366.97705078 C-222.84962891 366.97705078 -249.57962891 366.97705078 -277.11962891 366.97705078 C-277.11962891 350.47705078 -277.11962891 333.97705078 -277.11962891 316.97705078 C-257.31962891 316.64705078 -237.51962891 316.31705078 -217.11962891 315.97705078 C-222.53063739 307.12039094 -222.53063739 307.12039094 -227.94873047 298.26806641 C-231.59496648 292.28139941 -235.13612624 286.3290242 -238.11962891 279.97705078 C-236.58642578 279.26155599 -235.05322266 278.5460612 -233.52001953 277.83056641 C-232.87226562 277.52828125 -232.22451172 277.22599609 -231.55712891 276.91455078 C-219.83837891 271.44580078 -219.83837891 271.44580078 -208.11962891 265.97705078 C-225.93962891 265.64705078 -243.75962891 265.31705078 -262.11962891 264.97705078 C-263.30086875 262.6145711 -263.24642573 261.19308928 -263.24902344 258.55908203 C-263.2521756 257.64473389 -263.25532776 256.73038574 -263.25857544 255.78833008 C-263.25655121 254.79873291 -263.25452698 253.80913574 -263.25244141 252.78955078 C-263.2538765 251.26938354 -263.2538765 251.26938354 -263.25534058 249.71850586 C-263.25602186 247.57324156 -263.25417116 245.4279752 -263.25 243.28271484 C-263.24465104 239.99067575 -263.24994675 236.69877311 -263.25634766 233.40673828 C-263.25568687 231.32600881 -263.25440568 229.24527943 -263.25244141 227.16455078 C-263.25446564 226.17495361 -263.25648987 225.18535645 -263.25857544 224.16577148 C-263.25542328 223.25142334 -263.25227112 222.3370752 -263.24902344 221.39501953 C-263.24783005 220.18495239 -263.24783005 220.18495239 -263.24661255 218.95043945 C-263.11962891 216.97705078 -263.11962891 216.97705078 -262.11962891 214.97705078 C-230.43962891 214.97705078 -198.75962891 214.97705078 -166.11962891 214.97705078 C-170.07962891 205.73705078 -174.03962891 196.49705078 -178.11962891 186.97705078 C-178.11962891 185.98705078 -178.11962891 184.99705078 -178.11962891 183.97705078 C-172.75277846 183.03407929 -167.38574453 182.09216084 -162.01855469 181.15112305 C-160.20144943 180.83238596 -158.38439037 180.51338539 -156.56738281 180.1940918 C-151.2814488 179.26532365 -145.99441277 178.34324374 -140.70617676 177.42767334 C-138.15764222 176.98367338 -135.61079679 176.5307986 -133.06396484 176.07714844 C-131.47580702 175.79995859 -129.88759347 175.52308779 -128.29931641 175.24658203 C-127.58945587 175.11773117 -126.87959534 174.98888031 -126.14822388 174.85612488 C-121.39757767 174.04033487 -116.93178843 173.46413299 -112.11962891 173.97705078 C-110.30200195 175.99975586 -110.30200195 175.99975586 -109.11962891 178.97705078 C-108.64372314 180.15356201 -108.16781738 181.33007324 -107.67749023 182.54223633 C-107.18002352 183.89739925 -106.68834498 185.25469722 -106.20166016 186.61376953 C-105.93955246 187.33442093 -105.67744476 188.05507233 -105.40739441 188.79756165 C-104.85788193 190.31197152 -104.3109115 191.82730597 -103.76635742 193.34350586 C-102.93027608 195.66970583 -102.08515313 197.99247267 -101.23876953 200.31494141 C-100.70503128 201.78935718 -100.17180982 203.26396015 -99.63916016 204.73876953 C-99.38608597 205.43459641 -99.13301178 206.13042328 -98.87226868 206.84733582 C-97.11962891 211.74568628 -97.11962891 211.74568628 -97.11962891 213.97705078 C-63.45962891 214.30705078 -29.79962891 214.63705078 4.88037109 214.97705078 C4.88037109 231.47705078 4.88037109 247.97705078 4.88037109 264.97705078 C-14.91962891 265.30705078 -34.71962891 265.63705078 -55.11962891 265.97705078 C-44.22962891 270.26705078 -33.33962891 274.55705078 -22.11962891 278.97705078 C-22.11962891 283.13667902 -22.2631848 283.66950451 -24.57666016 286.77783203 C-25.11355469 287.509375 -25.65044922 288.24091797 -26.20361328 288.99462891 C-26.77402344 289.75195312 -27.34443359 290.50927734 -27.93212891 291.28955078 C-28.46 292.00433594 -28.98787109 292.71912109 -29.53173828 293.45556641 C-31.3879792 295.96746201 -33.25426576 298.471922 -35.11962891 300.97705078 C-40.56462891 308.40205078 -40.56462891 308.40205078 -46.11962891 315.97705078 C-14.43962891 316.47205078 -14.43962891 316.47205078 17.88037109 316.97705078 C17.88037109 333.47705078 17.88037109 349.97705078 17.88037109 366.97705078 C-44.15962891 367.30705078 -106.19962891 367.63705078 -170.11962891 367.97705078 C-157.57962891 371.60705078 -145.03962891 375.23705078 -132.11962891 378.97705078 C-134.1081581 386.93116757 -139.13788335 393.80990878 -143.11962891 400.97705078 C-91.30962891 400.97705078 -39.49962891 400.97705078 13.88037109 400.97705078 C13.88037109 417.47705078 13.88037109 433.97705078 13.88037109 450.97705078 C-6.36962891 451.22705078 -6.36962891 451.22705078 -12.74560547 451.27490234 C-14.41718298 451.30427259 -16.08873582 451.33509847 -17.76025391 451.36767578 C-18.62505371 451.36880371 -19.48985352 451.36993164 -20.38085938 451.37109375 C-25.3415806 451.46124673 -25.3415806 451.46124673 -29.60424805 453.80932617 C-31.65480938 456.74261666 -32.98449069 459.86196324 -34.30712891 463.16455078 C-42.44873245 482.48421197 -53.0781431 499.63768344 -66.90478516 515.40283203 C-69.197608 517.96164796 -69.197608 517.96164796 -71.11962891 520.97705078 C-69.93369141 521.34701172 -68.74775391 521.71697266 -67.52587891 522.09814453 C-61.47529693 524.12007856 -55.63985539 526.63612939 -49.77209473 529.1272583 C-27.72189365 538.47292709 -5.45644118 547.28826062 16.79083252 556.15067577 C22.12229297 558.27499661 27.45099659 560.40616386 32.77868652 562.53992176 C36.9655764 564.21548141 41.15733884 565.87823313 45.35213852 567.53388405 C48.22253043 568.66920109 51.08936 569.81333054 53.95554352 570.9592247 C55.30054036 571.49483524 56.64695076 572.026914 57.99495697 572.55490494 C81.95585062 581.94731636 102.51365297 596.10150409 113.88037109 619.97705078 C123.59370402 643.75180238 124.67604101 668.48411358 115.37646484 692.57470703 C105.80753139 714.33591079 88.51186501 728.8493302 69.88037109 742.97705078 C69.15253418 743.52941406 68.42469727 744.08177734 67.67480469 744.65087891 C4.5236635 792.3573751 -69.57252358 821.58146402 -148.11962891 830.97705078 C-149.06580078 831.09564453 -150.01197266 831.21423828 -150.98681641 831.33642578 C-234.63838459 841.40337668 -324.95467103 824.79939783 -400.82519531 789.05224609 C-403.12704049 787.97357764 -405.43992368 786.92243206 -407.75634766 785.87548828 C-434.02182047 773.886163 -459.42904894 758.84242871 -482.11962891 740.97705078 C-483.01552734 740.28224609 -483.91142578 739.58744141 -484.83447266 738.87158203 C-487.29183139 736.93994672 -489.70795126 734.96536182 -492.11962891 732.97705078 C-493.04517578 732.23712891 -493.97072266 731.49720703 -494.92431641 730.73486328 C-503.59824979 723.65786177 -511.50759333 715.80543239 -519.43212891 707.91455078 C-519.9916626 707.36019348 -520.55119629 706.80583618 -521.12768555 706.23468018 C-528.26554721 699.14886433 -534.87391481 691.87738609 -541.11962891 683.97705078 C-542.09581727 682.8029059 -543.07570128 681.63181267 -544.06103516 680.46533203 C-557.98578733 663.71492751 -569.69390357 645.0719109 -580.11962891 625.97705078 C-580.59851563 625.10290527 -581.07740234 624.22875977 -581.57080078 623.328125 C-611.71197856 567.91578419 -631.13480139 506.31577591 -638.36962891 443.66455078 C-638.45440491 442.93627075 -638.53918091 442.20799072 -638.62652588 441.4576416 C-639.68440841 432.10851809 -640.23951983 422.82538301 -640.42041016 413.41845703 C-640.46890872 411.45467112 -640.51741131 409.49088532 -640.56591797 407.52709961 C-640.65630377 403.72855299 -640.67205489 399.93922359 -640.64599609 396.13989258 C-640.51142119 386.95445267 -640.51142119 386.95445267 -644.5324707 379.07397461 C-647.3151999 377.03828681 -650.02972803 375.49061334 -653.11962891 373.97705078 C-665.3339772 365.23136097 -673.70735478 350.29088889 -676.65087891 335.73095703 C-679.06879442 316.3674836 -676.24822759 299.20420398 -665.01416016 282.92626953 C-657.99748647 273.94741098 -650.08849332 267.73600913 -639.99462891 262.60205078 C-639.337771 262.26794189 -638.68091309 261.93383301 -638.00415039 261.58959961 C-622.26168124 253.9513465 -604.28316837 254.79995572 -587.99462891 260.16455078 C-571.27029234 266.51274513 -558.26208116 278.19895667 -550.51416016 294.31689453 C-542.97655384 312.90670953 -543.22385729 331.64804458 -550.36962891 350.22705078 C-556.58687153 363.79194379 -566.76062207 373.54230453 -579.25732422 381.30493164 C-581.29539699 382.81215962 -581.29539699 382.81215962 -581.60546875 385.09228516 C-581.59725098 385.91019531 -581.5890332 386.72810547 -581.58056641 387.57080078 C-581.57718262 388.97120605 -581.57718262 388.97120605 -581.57373047 390.39990234 C-581.54762695 391.41536133 -581.52152344 392.43082031 -581.49462891 393.47705078 C-581.47094238 395.07371582 -581.47094238 395.07371582 -581.44677734 396.70263672 C-580.1827839 457.81939006 -564.96021662 516.34989473 -540.11962891 571.97705078 C-539.75514648 572.80527344 -539.39066406 573.63349609 -539.01513672 574.48681641 C-530.68621571 593.36570403 -520.29106613 611.32289309 -508.11962891 627.97705078 C-507.72291992 628.52393555 -507.32621094 629.07082031 -506.91748047 629.63427734 C-490.88317933 651.66296097 -471.94611439 673.48592841 -450.11962891 689.97705078 C-448.91095544 690.91411223 -447.7026489 691.85164706 -446.49462891 692.78955078 C-427.4561324 707.44399648 -406.92318865 719.53720512 -385.28369141 729.93652344 C-383.80694518 730.64657448 -382.33309147 731.36266505 -380.86181641 732.08398438 C-342.43521948 750.82963242 -300.66982836 762.7427878 -258.49462891 769.16455078 C-256.97844971 769.39706543 -256.97844971 769.39706543 -255.43164062 769.63427734 C-236.85769906 772.31903224 -218.3725786 773.35824359 -199.61962891 773.28955078 C-198.05589539 773.28681656 -198.05589539 773.28681656 -196.46057129 773.2840271 C-179.17756946 773.23341584 -162.23972171 772.51657251 -145.11962891 769.97705078 C-143.38374512 769.71964111 -143.38374512 769.71964111 -141.61279297 769.45703125 C-73.04918731 758.89789627 -6.57176262 730.91890555 45.88037109 684.97705078 C46.66025391 684.33123047 47.44013672 683.68541016 48.24365234 683.02001953 C55.66985623 676.82452364 61.05526989 670.5963447 62.13037109 660.66845703 C62.53177799 652.62777514 60.17960634 645.68755976 55.38037109 639.22705078 C48.14096097 631.69187557 36.32046848 628.4119734 26.76708984 624.78955078 C24.91319458 624.0777358 23.05929957 623.36592016 21.20541859 622.65406799 C18.64092398 621.67113375 16.0742953 620.69383854 13.50769043 619.71643066 C10.29519188 618.49195746 7.08485655 617.2618448 3.87451172 616.03173828 C3.24923018 615.79219044 2.62394863 615.55264259 1.97971916 615.30583572 C0.11712863 614.59219784 -1.74539109 613.87837515 -3.60791016 613.16455078 C-4.81365692 612.7024823 -6.01940369 612.24041382 -7.26168823 611.76434326 C-32.16447529 602.21336602 -32.16447529 602.21336602 -42.86962891 596.72705078 C-43.81241699 596.25017822 -44.75520508 595.77330566 -45.7265625 595.28198242 C-52.16516068 592.01283053 -58.54936123 588.64610614 -64.92431641 585.25512695 C-73.83672477 580.54697866 -82.85662065 576.05097601 -91.86962891 571.53955078 C-93.06884979 570.93806717 -93.06884979 570.93806717 -94.29229736 570.32443237 C-96.60336904 569.16592898 -98.91591775 568.01043218 -101.22900391 566.85595703 C-101.92003204 566.50945099 -102.61106018 566.16294495 -103.32302856 565.80593872 C-105.24827345 564.84785785 -107.18217366 563.9101416 -109.11962891 562.97705078 C-109.73680786 562.66605438 -110.35398682 562.35505798 -110.98986816 562.03463745 C-113.70786606 560.73973531 -115.71709724 559.95399024 -118.74902344 560.12768555 C-121.35962646 561.06303961 -123.64028914 562.19087344 -126.04931641 563.56689453 C-127.47171631 564.3651062 -127.47171631 564.3651062 -128.92285156 565.17944336 C-129.93653809 565.75202881 -130.95022461 566.32461426 -131.99462891 566.91455078 C-143.738983 573.40006589 -155.67092216 578.98616536 -168.11962891 583.97705078 C-168.98668457 584.32574219 -169.85374023 584.67443359 -170.74707031 585.03369141 C-194.18834289 594.31613362 -218.59481261 600.47439804 -243.24462891 605.53955078 C-244.52332352 605.80372803 -244.52332352 605.80372803 -245.82785034 606.07324219 C-248.25943618 606.57179364 -250.69279669 607.0600861 -253.12744141 607.54345703 C-253.84796188 607.68985123 -254.56848236 607.83624542 -255.31083679 607.98707581 C-259.30424753 608.76117509 -263.05379951 609.12274102 -267.11962891 608.97705078 C-270.50183997 602.80740821 -273.87101491 596.63075122 -277.23144531 590.44921875 C-278.53953793 588.04377614 -279.84902315 585.6391343 -281.16015625 583.23535156 C-282.89694025 580.04966427 -284.62661718 576.86019949 -286.35202026 573.66833496 C-287.02992863 572.4167305 -287.71004227 571.16631794 -288.3923645 569.91711426 C-289.35420519 568.15513262 -290.30741679 566.38844881 -291.26025391 564.62158203 C-291.81229492 563.60427002 -292.36433594 562.58695801 -292.93310547 561.53881836 C-294.11962891 558.97705078 -294.11962891 558.97705078 -294.11962891 555.97705078 C-292.97413574 555.80165771 -291.82864258 555.62626465 -290.6484375 555.44555664 C-255.63852821 550.05415318 -220.31326838 544.36704005 -187.35009766 530.82470703 C-185.11962891 529.97705078 -185.11962891 529.97705078 -183.11962891 529.97705078 C-183.11962891 529.31705078 -183.11962891 528.65705078 -183.11962891 527.97705078 C-183.84767731 527.84741943 -184.57572571 527.71778809 -185.32583618 527.58422852 C-187.96755003 527.01010223 -190.3055346 526.24317718 -192.8203125 525.26220703 C-193.72671478 524.9109375 -194.63311707 524.55966797 -195.56698608 524.19775391 C-197.02777084 523.62444336 -197.02777084 523.62444336 -198.51806641 523.03955078 C-199.54404938 522.64058594 -200.57003235 522.24162109 -201.62710571 521.83056641 C-204.91778462 520.54988455 -208.20621934 519.26354689 -211.49462891 517.97705078 C-213.63771373 517.1420448 -215.78094162 516.30740591 -217.92431641 515.47314453 C-224.32503152 512.98026137 -230.72268854 510.47960179 -237.11962891 507.97705078 C-238.23116333 507.54231445 -239.34269775 507.10757813 -240.48791504 506.65966797 C-247.03228164 504.09997524 -253.57621311 501.53917309 -260.11962891 498.97705078 C-258.74514024 495.34072455 -257.11528033 492.00640957 -255.21337891 488.61767578 C-254.63330078 487.58255859 -254.05322266 486.54744141 -253.45556641 485.48095703 C-252.84970703 484.40716797 -252.24384766 483.33337891 -251.61962891 482.22705078 C-251.04470703 481.19966797 -250.46978516 480.17228516 -249.87744141 479.11376953 C-244.74957264 469.98885022 -239.42951537 461.00385777 -234.11962891 451.97705078 C-255.89962891 451.48205078 -255.89962891 451.48205078 -278.11962891 450.97705078 C-278.11962891 445.69705078 -278.11962891 440.41705078 -278.11962891 434.97705078 C-279.51955078 435.25419922 -280.91947266 435.53134766 -282.36181641 435.81689453 C-284.23937411 436.18301828 -286.11698094 436.54889023 -287.99462891 436.91455078 C-288.91244141 437.09695313 -289.83025391 437.27935547 -290.77587891 437.46728516 C-292.14873047 437.7331543 -292.14873047 437.7331543 -293.54931641 438.00439453 C-294.3767334 438.16673584 -295.20415039 438.32907715 -296.05664062 438.49633789 C-298.81050289 438.92853579 -301.53770847 439.23604674 -304.31106567 439.50709534 C-305.66179515 439.63980756 -305.66179515 439.63980756 -307.03981209 439.77520084 C-307.72615164 439.84181132 -308.41249119 439.9084218 -309.11962891 439.97705078 C-309.11686353 440.59290102 -309.11409815 441.20875126 -309.11124897 441.84326363 C-309.04475429 456.88620602 -308.99523479 471.92910276 -308.96419239 486.97215462 C-308.94877829 494.24711539 -308.92779437 501.52197756 -308.89331055 508.796875 C-308.86323975 515.14384784 -308.84401434 521.49074921 -308.83736342 527.83779132 C-308.83348075 531.19297031 -308.82285452 534.54778428 -308.80243874 537.9029274 C-308.57618626 576.64744251 -308.57618626 576.64744251 -321.61962891 591.22705078 C-333.45510583 602.22521863 -348.09882727 604.03699412 -363.56884766 604.82861328 C-364.70747757 604.89237152 -365.84610748 604.95612976 -367.01924133 605.02182007 C-370.61488337 605.22168867 -374.2109544 605.41202962 -377.80712891 605.60205078 C-380.26224184 605.73683494 -382.71732046 605.87224565 -385.17236328 606.00830078 C-391.1544078 606.33845806 -397.13683293 606.660819 -403.11962891 606.97705078 C-406.64992922 592.46849277 -410.15830338 577.95454782 -413.55712891 563.41455078 C-413.94505615 561.77607178 -413.94505615 561.77607178 -414.34082031 560.10449219 C-414.69345947 558.5854126 -414.69345947 558.5854126 -415.05322266 557.03564453 C-415.26003662 556.15191162 -415.46685059 555.26817871 -415.67993164 554.35766602 C-416.11962891 551.97705078 -416.11962891 551.97705078 -416.11962891 547.97705078 C-414.99991699 547.96246826 -413.88020508 547.94788574 -412.7265625 547.93286133 C-408.55534616 547.87470192 -404.38465971 547.79747056 -400.21386719 547.71459961 C-398.41187162 547.68143305 -396.60977423 547.65337553 -394.80761719 547.63061523 C-392.21066068 547.59691646 -389.61463025 547.54459429 -387.01806641 547.48876953 C-386.21783051 547.48237961 -385.4175946 547.47598969 -384.59310913 547.46940613 C-379.72354918 547.34263465 -376.35955432 546.61840206 -372.11962891 543.97705078 C-367.91581773 539.33836258 -367.97864735 534.82114599 -368.00610352 528.83374023 C-368.00588448 527.58950287 -368.00588448 527.58950287 -368.00566101 526.32012939 C-368.00635799 523.57683706 -368.01414037 520.83361252 -368.02197266 518.09033203 C-368.0238376 516.1888991 -368.02526114 514.28746569 -368.02626038 512.3860321 C-368.03007955 507.3801033 -368.03990475 502.37420348 -368.05096436 497.36828613 C-368.06119134 492.2606648 -368.06576076 487.15303878 -368.07080078 482.04541016 C-368.08152753 472.02261096 -368.09859679 461.99983328 -368.11962891 451.97705078 C-369.24981445 452.21939453 -370.38 452.46173828 -371.54443359 452.71142578 C-375.74050462 453.61005918 -379.93769962 454.50334254 -384.13525391 455.39501953 C-385.95132011 455.78158219 -387.76707886 456.16959224 -389.58251953 456.55908203 C-392.19305076 457.1188896 -394.80464584 457.67347125 -397.41650391 458.22705078 C-398.22706238 458.40204102 -399.03762085 458.57703125 -399.8727417 458.75732422 C-400.63322815 458.91749023 -401.3937146 459.07765625 -402.17724609 459.24267578 C-402.84342957 459.38479492 -403.50961304 459.52691406 -404.19598389 459.67333984 C-406.11962891 459.97705078 -406.11962891 459.97705078 -410.11962891 459.97705078 C-411.97343503 449.04824748 -413.19565655 438.05974563 -414.40673828 427.04492188 C-414.74701146 423.9554184 -415.0932161 420.86661734 -415.43994141 417.77783203 C-415.65904378 415.80261067 -415.87780615 413.82735156 -416.09619141 411.85205078 C-416.19928619 410.93431885 -416.30238098 410.01658691 -416.40859985 409.07104492 C-417.34671429 400.47013252 -417.34671429 400.47013252 -417.11962891 396.97705078 C-415.5998914 395.45731327 -414.05145043 395.59359141 -411.9387207 395.31274414 C-411.05077316 395.19269516 -410.16282562 395.07264618 -409.24797058 394.94895935 C-408.28136002 394.82287796 -407.31474945 394.69679657 -406.31884766 394.56689453 C-405.33092728 394.43513321 -404.3430069 394.30337189 -403.32514954 394.1676178 C-401.22964948 393.88909065 -399.13387008 393.61265854 -397.0378418 393.33813477 C-393.83066747 392.91763696 -390.62452533 392.48987546 -387.41845703 392.06103516 C-385.38531139 391.79172066 -383.35210998 391.5228267 -381.31884766 391.25439453 C-380.35830978 391.12628891 -379.39777191 390.99818329 -378.40812683 390.86619568 C-377.0620208 390.69085045 -377.0620208 390.69085045 -375.6887207 390.51196289 C-374.90119919 390.40838974 -374.11367767 390.30481659 -373.30229187 390.19810486 C-371.11962891 389.97705078 -371.11962891 389.97705078 -367.11962891 389.97705078 C-367.11962891 365.22705078 -367.11962891 340.47705078 -367.11962891 314.97705078 C-376.35962891 314.97705078 -385.59962891 314.97705078 -395.11962891 314.97705078 C-401.51804345 314.65145683 -407.86897258 314.28434863 -414.24462891 313.72705078 C-415.43591904 313.62768219 -415.43591904 313.62768219 -416.65127563 313.52630615 C-463.1535715 309.62893349 -508.00505741 299.37247643 -539.51464844 262.33740234 C-559.40385192 237.86175878 -566.52961589 206.09916016 -563.36962891 175.16455078 C-557.42703289 122.963565 -516.54268548 83.86139006 -478.11962891 51.97705078 C-477.5445459 51.49703613 -476.96946289 51.01702148 -476.37695312 50.52246094 C-401.0547933 -12.06154599 -301.986994 -47.04310836 0 0 Z M-174.11962891 264.97705078 C-172.2664366 268.68343539 -170.17166635 272.04870833 -167.86962891 275.47705078 C-167.23275146 276.43164185 -167.23275146 276.43164185 -166.58300781 277.40551758 C-163.88804135 281.4202629 -161.13528573 285.39040566 -158.34619141 289.34033203 C-157.70842773 290.24396484 -157.07066406 291.14759766 -156.41357422 292.07861328 C-155.14399418 293.87217775 -153.86996691 295.66260326 -152.59130859 297.44970703 C-152.01026367 298.26955078 -151.42921875 299.08939453 -150.83056641 299.93408203 C-150.30769043 300.66602783 -149.78481445 301.39797363 -149.24609375 302.15209961 C-148.11962891 303.97705078 -148.11962891 303.97705078 -148.11962891 305.97705078 C-159.50462891 310.92705078 -159.50462891 310.92705078 -171.11962891 315.97705078 C-171.11962891 316.30705078 -171.11962891 316.63705078 -171.11962891 316.97705078 C-163.66328555 317.07849372 -156.20712024 317.14853463 -148.75024414 317.19677734 C-146.21371816 317.21688919 -143.67723851 317.24418239 -141.14086914 317.27880859 C-137.4943498 317.3273432 -133.84844362 317.35002441 -130.20166016 317.36767578 C-129.06815628 317.38832092 -127.9346524 317.40896606 -126.76679993 317.43023682 C-120.61308272 317.47783792 -120.61308272 317.47783792 -115.02392578 315.19335938 C-113.32282964 313.21354517 -111.86825558 311.38457502 -110.56884766 309.12548828 C-110.12508789 308.36864746 -109.68132812 307.61180664 -109.22412109 306.83203125 C-108.75651367 306.0136377 -108.28890625 305.19524414 -107.80712891 304.35205078 C-106.76609271 302.56967063 -105.72301012 300.78848463 -104.67822266 299.00830078 C-104.11603027 298.04794922 -103.55383789 297.08759766 -102.97460938 296.09814453 C-100.948432 292.68900376 -98.87313153 289.31393573 -96.77978516 285.94580078 C-96.41362595 285.35594391 -96.04746674 284.76608704 -95.67021179 284.15835571 C-94.20745683 281.80363564 -92.74361009 279.44964217 -91.27304077 277.09979248 C-90.2440685 275.45452592 -89.22078294 273.80570693 -88.19775391 272.15673828 C-87.30685059 270.72950439 -87.30685059 270.72950439 -86.39794922 269.2734375 C-84.95750086 267.12383764 -84.95750086 267.12383764 -85.11962891 264.97705078 C-114.48962891 264.97705078 -143.85962891 264.97705078 -174.11962891 264.97705078 Z M-175.11962891 455.97705078 C-177.13568485 458.89393953 -178.79283569 461.9929095 -180.49462891 465.10205078 C-180.95740234 465.91287109 -181.42017578 466.72369141 -181.89697266 467.55908203 C-182.54472656 468.72890625 -182.54472656 468.72890625 -183.20556641 469.92236328 C-183.5979248 470.62893066 -183.9902832 471.33549805 -184.39453125 472.06347656 C-185.4142332 474.14634524 -185.4142332 474.14634524 -184.11962891 476.97705078 C-181.99298811 478.19783018 -181.99298811 478.19783018 -179.31201172 479.16943359 C-177.77471405 479.7745578 -177.77471405 479.7745578 -176.20635986 480.39190674 C-175.0897699 480.81703552 -173.97317993 481.24216431 -172.82275391 481.68017578 C-171.11137238 482.34324738 -171.11137238 482.34324738 -169.36541748 483.01971436 C-166.94647218 483.95321119 -164.52527284 484.88088456 -162.10205078 485.80322266 C-158.39243389 487.21835123 -154.69339035 488.65882403 -150.99462891 490.10205078 C-148.64626655 491.0046446 -146.29732619 491.90573628 -143.94775391 492.80517578 C-142.83926086 493.23840149 -141.73076782 493.6716272 -140.58868408 494.11798096 C-139.55121033 494.50878845 -138.51373657 494.89959595 -137.44482422 495.30224609 C-136.53516907 495.65071594 -135.62551392 495.99918579 -134.68829346 496.35821533 C-131.74713147 497.06679182 -129.99500043 496.85862515 -127.11962891 495.97705078 C-113.33626767 486.16439294 -101.83334459 469.44778693 -95.11962891 453.97705078 C-95.11962891 452.98705078 -95.11962891 451.99705078 -95.11962891 450.97705078 C-104.81195994 450.86114965 -114.50405209 450.77233216 -124.19692516 450.71798992 C-128.69785748 450.69190687 -133.19831535 450.65653302 -137.69897461 450.59985352 C-142.04322782 450.54548672 -146.387025 450.51562052 -150.73159218 450.50266457 C-152.38822928 450.49343297 -154.0448417 450.47540532 -155.70128441 450.4484005 C-158.02381492 450.41204581 -160.34446661 450.40710777 -162.66723633 450.40942383 C-163.35056534 450.39144745 -164.03389435 450.37347107 -164.7379303 450.35494995 C-169.88309104 450.41038562 -171.9265873 452.07545684 -175.11962891 455.97705078 Z " fill="#FFFFFF" transform="translate(802.11962890625,168.02294921875)"/>
</svg>
